<?xml version="1.0" encoding="UTF-8"?>
<svg id="Layer_1" data-name="Layer 1" xmlns="http://www.w3.org/2000/svg" viewBox="0 0 1080 518.46">
  <defs>
    <style>
      .cls-1 {
        fill: #00674f;
      }
    </style>
  </defs>
  <rect class="cls-1" x="406.12" y="338" width="6.46" height="39.85"/>
  <path class="cls-1" d="M426.4,222.95h19.54l11.61,33.5h22.19l-14.25-38.21c9.79-6.17,14.69-15.77,14.69-28.8,0-21.94-11.76-32.92-35.27-32.92h-38.79v99.92h20.28v-33.5ZM426.4,173.87h18.52c4.7,0,8.3,1.42,10.8,4.26,2.5,2.84,3.75,6.66,3.75,11.46s-1.18,8.67-3.53,11.61-5.93,4.41-10.73,4.41h-18.81v-31.74ZM655.04,156.53h20.28v99.92h-20.28v-99.92ZM494.88,229.42c-1.08-6.07-1.62-13.71-1.62-22.92,0-19.3,2.72-32.74,8.16-40.34,5.44-7.59,15.45-11.39,30.05-11.39,8.42,0,18.17,1.32,29.24,3.97l-.59,16.16c-9.7-1.47-17.76-2.2-24.17-2.2s-11,.86-13.74,2.57c-2.74,1.71-4.78,4.97-6.1,9.77-1.32,4.8-1.98,12.98-1.98,24.54s1.35,19.57,4.04,24.03c2.69,4.46,8.08,6.69,16.16,6.69s16.68-.68,25.79-2.06l.44,16.6c-10.38,2.25-19.74,3.38-28.07,3.38s-14.99-1.03-19.98-3.09c-5-2.06-8.92-5.34-11.76-9.85-2.84-4.5-4.8-9.79-5.88-15.87ZM597.3,256.46h-20.28v-99.92h63.77v17.63h-43.5v29.39h35.56v17.63h-35.56v35.27ZM590.96,294.08c3.3-2.13,6.59-3.51,9.89-4.13v6.34c-3.34.66-6.19,1.51-8.55,2.56l-1.28.52v20.31h-6.34v-29.09h6.28v3.49ZM495.31,305.28c0-5.53-.89-9.46-2.68-11.81-1.78-2.35-4.6-3.52-8.44-3.52-2.33,0-4.83.81-7.5,2.44v-1.8h-6.28v41.6h6.34v-12.39c2.09.35,3.94.52,5.53.52,4.62,0,7.94-1.12,9.98-3.37,2.04-2.25,3.05-6.14,3.05-11.67ZM487.34,312.58c-1.01,1.51-2.83,2.27-5.47,2.27-1.86,0-3.57-.15-5.12-.47v-17.16l.87-.41c1.82-.81,3.65-1.22,5.47-1.22,3.84,0,5.76,3.08,5.76,9.25,0,3.65-.5,6.23-1.51,7.74ZM612.02,319.68h-6.34v-29.09h6.34v29.09ZM876.33,277.84l6.28.58-.06,5.18c-1.9-.08-3.48-.12-4.74-.12s-2.14.38-2.65,1.13c-.5.76-.76,2.14-.76,4.16v1.8h7.68v5.41h-7.68v23.68h-6.28v-23.68h-3.37v-5.41h3.37v-1.86c0-4.15.6-7,1.8-8.55,1.2-1.55,3.34-2.33,6.4-2.33ZM517.83,296.29c-3.34.66-6.19,1.51-8.55,2.56l-1.28.52v20.31h-6.34v-29.09h6.28v3.49c3.3-2.13,6.59-3.51,9.89-4.13v6.34ZM427.71,319.68h7.1l-6.57-15.65c4.34-2.02,6.52-5.86,6.52-11.52,0-8.46-4.5-12.68-13.5-12.68h-15.13v39.85h6.46v-14.2h9.37l5.76,14.2ZM412.58,299.89v-14.49h8.67c4.58,0,6.87,2.39,6.87,7.16,0,2.21-.54,3.99-1.63,5.32-1.09,1.34-2.79,2.01-5.12,2.01h-8.79ZM534,289.95c-4.65,0-7.98,1.26-9.98,3.78-2,2.52-3,6.3-3,11.35s.97,8.84,2.91,11.4c1.94,2.56,5.29,3.84,10.07,3.84s8.12-1.28,10.07-3.84c1.94-2.56,2.91-6.36,2.91-11.4s-1-8.82-3-11.35c-2-2.52-5.32-3.78-9.98-3.78ZM539.24,312.64c-.89,1.55-2.64,2.33-5.24,2.33s-4.34-.78-5.24-2.33c-.89-1.55-1.34-4.09-1.34-7.62s.47-6.03,1.42-7.5c.95-1.47,2.67-2.21,5.15-2.21s4.2.74,5.15,2.21c.95,1.47,1.43,3.98,1.43,7.5s-.45,6.07-1.34,7.62ZM839.33,319.68h-6.34v-29.09h6.28v3.49c3.3-2.13,6.59-3.51,9.89-4.13v6.34c-3.34.66-6.19,1.51-8.55,2.56l-1.28.52v20.31ZM692.45,315.49c-2.08-3.22-3.11-8.51-3.11-15.88s1.05-12.62,3.14-15.74c2.09-3.12,6.03-4.68,11.81-4.68,3.45,0,7.25.49,11.4,1.45l-.23,5.24c-3.49-.62-6.98-.93-10.47-.93s-5.86,1.04-7.1,3.11c-1.24,2.08-1.86,5.97-1.86,11.69s.6,9.62,1.8,11.69c1.2,2.08,3.55,3.11,7.04,3.11s7.02-.29,10.59-.87l.17,5.35c-4,.85-7.78,1.28-11.35,1.28-5.82,0-9.76-1.61-11.84-4.83ZM768.93,319.68v-15.42c0-3.14-.34-5.37-1.02-6.69-.68-1.32-2.07-1.98-4.16-1.98-1.98,0-3.88.39-5.7,1.16l-.87.35v22.57h-6.34v-29.09h6.28v1.8c2.83-1.63,5.51-2.44,8.03-2.44,3.88,0,6.53,1.1,7.94,3.29,1.42,2.19,2.12,5.81,2.12,10.85v15.59h-6.28ZM605.68,285.64v-6.69h6.34v6.69h-6.34ZM743.74,318.98l-.12-4.71-1.63.17c-2.91.23-5.74.35-8.49.35s-4.63-.56-5.64-1.69c-1.01-1.12-1.53-2.89-1.57-5.29h18.04l.41-4.54c0-8.88-4.07-13.32-12.22-13.32s-12.62,5.16-12.62,15.48c0,5.2.94,8.98,2.82,11.35,1.88,2.37,4.97,3.55,9.28,3.55,3.41,0,7.33-.45,11.75-1.34ZM727.77,296.99c.99-1.2,2.57-1.8,4.74-1.8s3.71.57,4.63,1.72c.91,1.14,1.37,3.15,1.37,6.02h-12.28c.04-2.75.55-4.73,1.54-5.93ZM643.32,290.59l-7.56,29.09h-11.29l-7.5-29.09h6.63l5.58,23.68h1.86l5.82-23.68h6.46ZM933.58,289.95v6.34c-3.34.66-6.19,1.51-8.55,2.56l-1.28.52v20.31h-6.34v-29.09h6.28v3.49c3.3-2.13,6.59-3.51,9.89-4.13ZM463.2,314.27l-1.63.17c-2.91.23-5.74.35-8.49.35s-4.64-.56-5.64-1.69c-1.01-1.12-1.53-2.89-1.57-5.29h18.04l.41-4.54c0-8.88-4.07-13.32-12.22-13.32s-12.63,5.16-12.63,15.48c0,5.2.94,8.98,2.82,11.35,1.88,2.37,4.97,3.55,9.28,3.55,3.41,0,7.33-.45,11.75-1.34l-.12-4.71ZM447.34,296.99c.99-1.2,2.57-1.8,4.74-1.8s3.71.57,4.62,1.72c.91,1.14,1.37,3.15,1.37,6.02h-12.28c.04-2.75.55-4.73,1.54-5.93ZM783.94,309.49v-13.5h-3.72v-5.41h3.72v-8.44h6.28v8.44h8.03v5.41h-8.03v12.8c0,2.37.17,3.94.52,4.71.35.78,1.24,1.16,2.68,1.16l4.77-.17.29,5.06c-2.6.5-4.58.76-5.93.76-3.3,0-5.56-.76-6.78-2.27s-1.83-4.36-1.83-8.55ZM554.86,293.61c-1.96,2.44-2.94,6.36-2.94,11.75s.88,9.23,2.65,11.52c1.76,2.29,4.55,3.43,8.35,3.43,2.37,0,4.96-.72,7.8-2.15v1.51h6.28v-41.19h-6.34v12.22c-3.02-.5-5.24-.76-6.63-.76-4.15,0-7.21,1.22-9.16,3.67ZM564.2,295.41c1.98,0,4.13.19,6.46.58v17.22l-.99.41c-1.79.7-3.67,1.05-5.64,1.05s-3.42-.69-4.33-2.07c-.91-1.38-1.37-3.85-1.37-7.42,0-6.52,1.96-9.77,5.88-9.77ZM825.89,318.98l-.12-4.71-1.63.17c-2.91.23-5.74.35-8.49.35s-4.63-.56-5.64-1.69c-1.01-1.12-1.53-2.89-1.57-5.29h18.04l.41-4.54c0-8.88-4.07-13.32-12.22-13.32s-12.62,5.16-12.62,15.48c0,5.2.94,8.98,2.82,11.35,1.88,2.37,4.97,3.55,9.28,3.55,3.41,0,7.33-.45,11.75-1.34ZM809.92,296.99c.99-1.2,2.57-1.8,4.74-1.8s3.71.57,4.63,1.72c.91,1.14,1.37,3.15,1.37,6.02h-12.28c.04-2.75.55-4.73,1.54-5.93ZM659.03,289.95c-8.42,0-12.62,5.16-12.62,15.48,0,5.2.94,8.98,2.82,11.35,1.88,2.37,4.97,3.55,9.28,3.55,3.41,0,7.33-.45,11.75-1.34l-.12-4.71-1.63.17c-2.91.23-5.74.35-8.49.35s-4.63-.56-5.64-1.69c-1.01-1.12-1.53-2.89-1.57-5.29h18.04l.41-4.54c0-8.88-4.07-13.32-12.22-13.32ZM652.75,302.92c.04-2.75.55-4.73,1.54-5.93.99-1.2,2.57-1.8,4.74-1.8s3.71.57,4.63,1.72c.91,1.14,1.37,3.15,1.37,6.02h-12.28ZM898.15,289.95c-4.65,0-7.98,1.26-9.98,3.78-2,2.52-3,6.3-3,11.35s.97,8.84,2.91,11.4c1.94,2.56,5.29,3.84,10.07,3.84s8.12-1.28,10.07-3.84c1.94-2.56,2.91-6.36,2.91-11.4s-1-8.82-3-11.35c-2-2.52-5.32-3.78-9.98-3.78ZM903.38,312.64c-.89,1.55-2.64,2.33-5.24,2.33s-4.34-.78-5.24-2.33c-.89-1.55-1.34-4.09-1.34-7.62s.47-6.03,1.42-7.5c.95-1.47,2.67-2.21,5.15-2.21s4.2.74,5.15,2.21c.95,1.47,1.43,3.98,1.43,7.5s-.45,6.07-1.34,7.62ZM443.27,351.41c1.42,2.19,2.12,5.81,2.12,10.85v15.59h-6.28v-15.42c0-3.14-.34-5.37-1.02-6.69-.68-1.32-2.07-1.98-4.16-1.98-1.98,0-3.88.39-5.7,1.16l-.87.35v22.57h-6.34v-29.09h6.28v1.8c2.83-1.63,5.51-2.44,8.03-2.44,3.88,0,6.53,1.1,7.94,3.29ZM855.04,348.88c-3.02-.5-5.24-.76-6.63-.76-4.15,0-7.21,1.22-9.16,3.67-1.96,2.44-2.94,6.36-2.94,11.75s.88,9.23,2.65,11.52c1.76,2.29,4.55,3.43,8.35,3.43,2.37,0,4.96-.72,7.8-2.15v1.51h6.28v-41.19h-6.34v12.22ZM855.04,371.4l-.99.41c-1.79.7-3.67,1.05-5.64,1.05s-3.42-.69-4.33-2.07c-.91-1.38-1.37-3.85-1.37-7.42,0-6.52,1.96-9.77,5.88-9.77,1.98,0,4.13.19,6.46.58v17.22ZM802.85,372.68l.29,5.06c-2.6.5-4.58.76-5.93.76-3.3,0-5.56-.76-6.78-2.27s-1.83-4.36-1.83-8.55v-13.5h-3.72v-5.41h3.72v-8.44h6.28v8.44h8.03v5.41h-8.03v12.8c0,2.37.17,3.94.52,4.71.35.78,1.24,1.16,2.68,1.16l4.77-.17ZM619,348.13c-4.65,0-7.98,1.26-9.98,3.78-2,2.52-3,6.3-3,11.35s.97,8.84,2.91,11.4c1.94,2.56,5.29,3.84,10.07,3.84s8.12-1.28,10.07-3.84c1.94-2.56,2.91-6.36,2.91-11.4s-1-8.82-3-11.35c-2-2.52-5.32-3.78-9.98-3.78ZM624.24,370.82c-.89,1.55-2.64,2.33-5.24,2.33s-4.34-.78-5.24-2.33c-.89-1.55-1.34-4.09-1.34-7.62s.47-6.03,1.42-7.5c.95-1.47,2.67-2.21,5.15-2.21s4.2.74,5.15,2.21c.95,1.47,1.43,3.98,1.43,7.5s-.45,6.07-1.34,7.62ZM710.46,337.13h6.34v6.69h-6.34v-6.69ZM690.04,372.1h15.88v5.76h-22.34v-39.85h6.46v34.09ZM660.51,351.41c1.42,2.19,2.12,5.81,2.12,10.85v15.59h-6.28v-15.42c0-3.14-.34-5.37-1.02-6.69-.68-1.32-2.07-1.98-4.16-1.98-1.98,0-3.88.39-5.7,1.16l-.87.35v22.57h-6.34v-29.09h6.28v1.8c2.83-1.63,5.51-2.44,8.03-2.44,3.88,0,6.53,1.1,7.94,3.29ZM710.46,348.77h6.34v29.09h-6.34v-29.09ZM773.24,337.13h6.34v6.69h-6.34v-6.69ZM773.24,348.77h6.34v29.09h-6.34v-29.09ZM763.64,351.36c1.43,2.15,2.15,5.79,2.15,10.91v15.59h-6.28v-15.42c0-3.14-.32-5.37-.96-6.69-.64-1.32-1.97-1.98-3.99-1.98-1.75,0-3.63.39-5.64,1.16l-.99.41c.31.78.47,3.26.47,7.45v15.07h-6.28v-14.95c0-3.45-.31-5.84-.93-7.16-.62-1.32-1.98-1.98-4.07-1.98-1.94,0-3.74.39-5.41,1.16l-.87.35v22.57h-6.34v-29.09h6.28v1.8c2.75-1.63,5.27-2.44,7.56-2.44,3.38,0,5.84.95,7.39,2.85,3.53-1.9,7.04-2.85,10.53-2.85s5.95,1.08,7.39,3.23ZM593.4,348.77h6.34v29.09h-6.34v-29.09ZM532.08,348.77h6.46l-7.56,29.09h-11.29l-7.5-29.09h6.63l5.58,23.68h1.86l5.82-23.68ZM564.6,370.99v-13.27c0-3.34-.79-5.77-2.36-7.3-1.57-1.53-4.13-2.3-7.68-2.3s-7.44.5-11.67,1.51l.23,4.48,1.86-.12c3.72-.31,6.83-.47,9.31-.47,1.32,0,2.32.31,3,.93.68.62,1.02,1.71,1.02,3.26v2.09l-7.5.64c-3.26.27-5.67,1.07-7.24,2.39-1.57,1.32-2.36,3.45-2.36,6.4,0,6.17,2.89,9.25,8.67,9.25,3.14,0,6.26-.72,9.37-2.15,1.82,1.44,4.4,2.15,7.74,2.15l.17-4.83c-.85-.12-1.48-.38-1.89-.79s-.63-1.04-.67-1.89ZM558.32,372.04l-1.05.35c-2.17.62-4.23.93-6.17.93-2.37,0-3.55-1.34-3.55-4.01s1.34-4.13,4.01-4.36l6.75-.64v7.74ZM593.4,337.13h6.34v6.69h-6.34v-6.69ZM496.13,348.13c-4.65,0-7.98,1.26-9.98,3.78-2,2.52-3,6.3-3,11.35s.97,8.84,2.91,11.4c1.94,2.56,5.29,3.84,10.07,3.84s8.12-1.28,10.06-3.84c1.94-2.56,2.91-6.36,2.91-11.4s-1-8.82-3-11.35c-2-2.52-5.32-3.78-9.98-3.78ZM501.36,370.82c-.89,1.55-2.64,2.33-5.24,2.33s-4.34-.78-5.24-2.33c-.89-1.55-1.34-4.09-1.34-7.62s.47-6.03,1.43-7.5c.95-1.47,2.67-2.21,5.15-2.21s4.2.74,5.15,2.21c.95,1.47,1.43,3.98,1.43,7.5s-.45,6.07-1.34,7.62ZM819.31,348.13c-8.42,0-12.62,5.16-12.62,15.48,0,5.2.94,8.98,2.82,11.35,1.88,2.37,4.97,3.55,9.28,3.55,3.41,0,7.33-.45,11.75-1.34l-.12-4.71-1.63.17c-2.91.23-5.74.35-8.49.35s-4.63-.56-5.64-1.69c-1.01-1.12-1.53-2.89-1.57-5.29h18.04l.41-4.54c0-8.88-4.07-13.32-12.22-13.32ZM813.03,361.1c.04-2.75.55-4.73,1.54-5.93.99-1.2,2.57-1.8,4.74-1.8s3.71.57,4.63,1.72c.91,1.14,1.37,3.15,1.37,6.02h-12.28ZM475.04,351.41c1.42,2.19,2.12,5.81,2.12,10.85v15.59h-6.28v-15.42c0-3.14-.34-5.37-1.02-6.69-.68-1.32-2.07-1.98-4.16-1.98-1.98,0-3.88.39-5.7,1.16l-.87.35v22.57h-6.34v-29.09h6.28v1.8c2.83-1.63,5.51-2.44,8.03-2.44,3.88,0,6.53,1.1,7.94,3.29ZM588.17,372.68l.29,5.06c-2.6.5-4.58.76-5.93.76-3.3,0-5.56-.76-6.78-2.27s-1.83-4.36-1.83-8.55v-13.5h-3.72v-5.41h3.72v-8.44h6.28v8.44h8.03v5.41h-8.03v12.8c0,2.37.17,3.94.52,4.71.35.78,1.24,1.16,2.68,1.16l4.77-.17Z"/>
  <polygon class="cls-1" points="316.91 281.4 316.91 196.04 326.79 186.16 345.76 186.16 345.76 160.82 320.42 160.82 320.42 177.85 309.37 188.9 224.42 188.9 213.58 178.07 213.58 119 146.42 119 146.42 186.16 206.99 186.16 216.63 195.8 216.63 289.18 310.02 289.18 320.42 299.59 320.42 327.74 309.45 338.71 256.85 338.71 256.85 399.46 317.6 399.46 317.6 345.24 326.79 336.04 364.69 336.04 364.69 291.78 327.29 291.78 316.91 281.4"/>
</svg>